<?xml version="1.0" standalone="no"?>
<!DOCTYPE svg PUBLIC "-//W3C//DTD SVG 20010904//EN"
 "http://www.w3.org/TR/2001/REC-SVG-20010904/DTD/svg10.dtd">
<svg version="1.0" xmlns="http://www.w3.org/2000/svg"
 width="76.000000pt" height="76.000000pt" viewBox="0 0 76.000000 76.000000"
 preserveAspectRatio="xMidYMid meet">
<metadata>
Created by potrace 1.14, written by Peter Selinger 2001-2017
</metadata>
<g transform="translate(0.000000,76.000000) scale(0.100000,-0.100000)"
fill="#000000" stroke="none">
<path d="M0 426 l0 -334 37 -5 c21 -3 78 -14 128 -25 50 -11 131 -25 180 -32
50 -6 112 -16 138 -21 26 -5 100 -9 162 -9 l115 0 0 380 0 380 -380 0 -380 0
0 -334z m280 98 c4 -5 3 -20 -3 -34 -16 -39 -36 -131 -36 -174 -1 -58 18 -111
56 -156 19 -22 30 -40 25 -40 -14 0 -57 23 -74 40 -8 8 -35 32 -61 54 -58 48
-93 100 -101 152 -9 52 4 84 55 135 39 39 44 41 86 36 25 -2 48 -9 53 -13z
m66 -225 c9 -10 23 -19 31 -19 7 0 13 -4 13 -9 0 -5 13 -12 30 -16 16 -4 32
-11 35 -16 4 -5 16 -9 28 -9 13 0 29 -9 37 -20 8 -11 25 -20 39 -20 l24 0 -24
-21 c-36 -32 -69 -41 -118 -34 -88 13 -151 80 -151 158 0 30 3 34 19 30 11 -3
27 -14 37 -24z m324 -98 c-17 -28 -47 -64 -66 -80 -32 -29 -110 -58 -122 -47
-3 3 2 6 11 6 10 0 17 5 17 10 0 6 7 10 17 10 31 0 115 73 150 132 10 15 19
25 21 23 3 -2 -10 -27 -28 -54z"/>
</g>
</svg>
